<svg version="1.0" preserveAspectRatio="xMidYMid meet" height="500" viewBox="0 0 375 374.999991" zoomAndPan="magnify" width="500" xmlns:xlink="http://www.w3.org/1999/xlink" xmlns="http://www.w3.org/2000/svg"><defs><g></g></defs><g fill-opacity="1" fill="#000000"><g transform="translate(16.402524, 214.712138)"><g><path d="M 3.234375 0 C 2.367188 0 1.628906 -0.398438 1.015625 -1.203125 C 0.335938 -2.003906 0 -2.832031 0 -3.6875 L 0.1875 -62.5625 C 0.1875 -63.726562 0.492188 -64.617188 1.109375 -65.234375 C 1.785156 -65.910156 2.550781 -66.25 3.40625 -66.25 L 19.921875 -66.15625 C 20.722656 -66.15625 21.523438 -65.816406 22.328125 -65.140625 C 23.003906 -64.335938 23.3125 -63.414062 23.25 -62.375 L 22.875 -38.75 L 30.90625 -38.75 L 31 -62.734375 C 31 -63.847656 31.304688 -64.710938 31.921875 -65.328125 C 32.597656 -66.003906 33.367188 -66.34375 34.234375 -66.34375 L 50.75 -66.25 C 51.550781 -66.25 52.347656 -65.910156 53.140625 -65.234375 C 53.816406 -64.429688 54.125 -63.539062 54.0625 -62.5625 L 53.046875 -4.703125 C 53.046875 -3.722656 52.738281 -2.894531 52.125 -2.21875 C 51.507812 -1.476562 50.710938 -1.109375 49.734375 -1.109375 L 34.046875 -1.109375 C 33.179688 -1.109375 32.441406 -1.507812 31.828125 -2.3125 C 31.148438 -3.101562 30.8125 -3.898438 30.8125 -4.703125 L 30.90625 -21.78125 L 22.515625 -21.78125 L 22.234375 -3.6875 C 22.234375 -2.644531 21.925781 -1.785156 21.3125 -1.109375 C 20.695312 -0.367188 19.898438 0 18.921875 0 Z M 3.234375 0"></path></g></g></g><g fill-opacity="1" fill="#000000"><g transform="translate(74.156084, 214.712138)"><g><path d="M 18.734375 0.828125 C 17.742188 0.828125 16.894531 0.457031 16.1875 -0.28125 C 15.476562 -1.019531 15.125 -1.910156 15.125 -2.953125 L 15.875 -20.296875 L 0.28125 -60.0625 C -0.21875 -61.351562 -0.0820312 -62.488281 0.6875 -63.46875 C 1.457031 -64.457031 2.394531 -64.953125 3.5 -64.953125 L 18.453125 -65.046875 C 19.492188 -65.046875 20.273438 -64.785156 20.796875 -64.265625 C 21.328125 -63.742188 21.679688 -63.144531 21.859375 -62.46875 L 27.125 -44.75 L 31.46875 -62.375 C 31.644531 -63.226562 32.070312 -63.898438 32.75 -64.390625 C 33.425781 -64.890625 34.195312 -65.140625 35.0625 -65.140625 L 50.28125 -64.671875 C 51.632812 -64.609375 52.632812 -64.070312 53.28125 -63.0625 C 53.925781 -62.050781 54.003906 -60.929688 53.515625 -59.703125 L 38.46875 -20.9375 L 39.765625 -3.140625 C 39.890625 -2.148438 39.613281 -1.269531 38.9375 -0.5 C 38.257812 0.257812 37.398438 0.640625 36.359375 0.640625 Z M 18.734375 0.828125"></path></g></g></g><g fill-opacity="1" fill="#000000"><g transform="translate(131.632865, 214.712138)"><g><path d="M 3.328125 0 C 2.460938 0 1.722656 -0.351562 1.109375 -1.0625 C 0.492188 -1.769531 0.1875 -2.613281 0.1875 -3.59375 L 0 -61.90625 C 0 -62.769531 0.320312 -63.585938 0.96875 -64.359375 C 1.613281 -65.128906 2.335938 -65.515625 3.140625 -65.515625 L 26.671875 -65.421875 C 31.222656 -65.421875 35.28125 -64.972656 38.84375 -64.078125 C 42.40625 -63.179688 45.398438 -61.640625 47.828125 -59.453125 C 50.265625 -57.273438 51.972656 -54.25 52.953125 -50.375 C 53.390625 -48.894531 53.679688 -47.003906 53.828125 -44.703125 C 53.984375 -42.398438 53.96875 -39.984375 53.78125 -37.453125 C 53.601562 -34.929688 53.191406 -32.546875 52.546875 -30.296875 C 51.898438 -28.054688 50.992188 -26.226562 49.828125 -24.8125 C 47.734375 -22.226562 45.238281 -20.273438 42.34375 -18.953125 C 39.457031 -17.640625 36.289062 -16.75 32.84375 -16.28125 C 29.394531 -15.820312 25.765625 -15.53125 21.953125 -15.40625 L 22.234375 -3.78125 C 22.359375 -2.738281 22.050781 -1.863281 21.3125 -1.15625 C 20.570312 -0.445312 19.800781 -0.09375 19 -0.09375 Z M 21.3125 -44.28125 L 21.59375 -34.140625 L 26.296875 -34.140625 C 28.453125 -34.140625 30.113281 -34.644531 31.28125 -35.65625 C 32.445312 -36.675781 33.0625 -37.863281 33.125 -39.21875 C 33.1875 -40.570312 32.570312 -41.769531 31.28125 -42.8125 C 30.664062 -43.300781 29.429688 -43.648438 27.578125 -43.859375 C 25.734375 -44.078125 23.644531 -44.21875 21.3125 -44.28125 Z M 21.3125 -44.28125"></path></g></g></g><g fill-opacity="1" fill="#000000"><g transform="translate(189.294172, 214.712138)"><g><path d="M 3.328125 0 C 2.460938 0 1.722656 -0.351562 1.109375 -1.0625 C 0.492188 -1.769531 0.1875 -2.613281 0.1875 -3.59375 L 0 -61.90625 C 0 -62.769531 0.320312 -63.585938 0.96875 -64.359375 C 1.613281 -65.128906 2.335938 -65.515625 3.140625 -65.515625 L 26.671875 -65.421875 C 31.222656 -65.421875 35.28125 -64.972656 38.84375 -64.078125 C 42.40625 -63.179688 45.398438 -61.640625 47.828125 -59.453125 C 50.265625 -57.273438 51.972656 -54.25 52.953125 -50.375 C 53.390625 -48.894531 53.679688 -47.003906 53.828125 -44.703125 C 53.984375 -42.398438 53.96875 -39.984375 53.78125 -37.453125 C 53.601562 -34.929688 53.191406 -32.546875 52.546875 -30.296875 C 51.898438 -28.054688 50.992188 -26.226562 49.828125 -24.8125 C 47.734375 -22.226562 45.238281 -20.273438 42.34375 -18.953125 C 39.457031 -17.640625 36.289062 -16.75 32.84375 -16.28125 C 29.394531 -15.820312 25.765625 -15.53125 21.953125 -15.40625 L 22.234375 -3.78125 C 22.359375 -2.738281 22.050781 -1.863281 21.3125 -1.15625 C 20.570312 -0.445312 19.800781 -0.09375 19 -0.09375 Z M 21.3125 -44.28125 L 21.59375 -34.140625 L 26.296875 -34.140625 C 28.453125 -34.140625 30.113281 -34.644531 31.28125 -35.65625 C 32.445312 -36.675781 33.0625 -37.863281 33.125 -39.21875 C 33.1875 -40.570312 32.570312 -41.769531 31.28125 -42.8125 C 30.664062 -43.300781 29.429688 -43.648438 27.578125 -43.859375 C 25.734375 -44.078125 23.644531 -44.21875 21.3125 -44.28125 Z M 21.3125 -44.28125"></path></g></g></g><g fill-opacity="1" fill="#000000"><g transform="translate(246.95548, 214.712138)"><g><path d="M 18.265625 -0.09375 C 13.773438 -1.570312 10.238281 -3.429688 7.65625 -5.671875 C 5.070312 -7.921875 3.195312 -10.953125 2.03125 -14.765625 C 0.863281 -18.578125 0.1875 -23.5 0 -29.53125 C 0.1875 -35.550781 0.878906 -40.945312 2.078125 -45.71875 C 3.273438 -50.488281 5.164062 -54.515625 7.75 -57.796875 C 10.332031 -61.085938 13.835938 -63.472656 18.265625 -64.953125 C 20.546875 -65.691406 23.128906 -66.109375 26.015625 -66.203125 C 28.910156 -66.296875 31.769531 -66.019531 34.59375 -65.375 C 37.425781 -64.726562 39.890625 -63.695312 41.984375 -62.28125 C 45.054688 -60.1875 47.4375 -57.570312 49.125 -54.4375 C 50.820312 -51.300781 52.023438 -47.71875 52.734375 -43.6875 C 53.441406 -39.65625 53.882812 -35.179688 54.0625 -30.265625 C 54.0625 -24.660156 53.203125 -19.472656 51.484375 -14.703125 C 49.765625 -9.941406 46.597656 -5.992188 41.984375 -2.859375 C 39.890625 -1.441406 37.425781 -0.410156 34.59375 0.234375 C 31.769531 0.878906 28.910156 1.15625 26.015625 1.0625 C 23.128906 0.96875 20.546875 0.582031 18.265625 -0.09375 Z M 21.21875 -31.640625 C 21.28125 -27.828125 21.878906 -24.9375 23.015625 -22.96875 C 24.160156 -21 25.484375 -19.96875 26.984375 -19.875 C 28.492188 -19.789062 29.847656 -20.671875 31.046875 -22.515625 C 32.242188 -24.359375 32.90625 -27.15625 33.03125 -30.90625 C 33.03125 -35.769531 32.429688 -39.492188 31.234375 -42.078125 C 30.035156 -44.660156 28.648438 -46.023438 27.078125 -46.171875 C 25.515625 -46.328125 24.144531 -45.207031 22.96875 -42.8125 C 21.800781 -40.414062 21.21875 -36.691406 21.21875 -31.640625 Z M 21.21875 -31.640625"></path></g></g></g><g fill-opacity="1" fill="#000000"><g transform="translate(304.709032, 214.712138)"><g><path d="M 3.234375 0.921875 C 2.242188 0.671875 1.578125 0.164062 1.234375 -0.59375 C 0.898438 -1.363281 0.734375 -2.300781 0.734375 -3.40625 L 0.734375 -17.0625 C 0.734375 -18.238281 1.316406 -19.039062 2.484375 -19.46875 C 3.660156 -19.894531 5.125 -20.125 6.875 -20.15625 C 8.625 -20.1875 10.40625 -20.140625 12.21875 -20.015625 C 14.039062 -19.898438 15.566406 -19.867188 16.796875 -19.921875 C 18.878906 -20.046875 20.289062 -20.539062 21.03125 -21.40625 C 21.769531 -22.269531 21.816406 -23.269531 21.171875 -24.40625 C 20.523438 -25.539062 19.15625 -26.476562 17.0625 -27.21875 C 13.132812 -28.695312 9.90625 -30.21875 7.375 -31.78125 C 4.851562 -33.351562 2.992188 -35.179688 1.796875 -37.265625 C 0.597656 -39.359375 0 -41.882812 0 -44.84375 C 0 -48.164062 0.472656 -51.160156 1.421875 -53.828125 C 2.378906 -56.503906 4.148438 -58.859375 6.734375 -60.890625 C 8.453125 -62.242188 10.445312 -63.257812 12.71875 -63.9375 C 15 -64.613281 17.382812 -65.070312 19.875 -65.3125 C 22.375 -65.5625 24.726562 -65.71875 26.9375 -65.78125 C 27.988281 -65.84375 29.539062 -65.875 31.59375 -65.875 C 33.65625 -65.875 35.804688 -65.8125 38.046875 -65.6875 C 40.296875 -65.570312 42.296875 -65.375 44.046875 -65.09375 C 45.804688 -64.8125 46.898438 -64.425781 47.328125 -63.9375 C 47.703125 -63.507812 47.945312 -62.863281 48.0625 -62 C 48.1875 -61.132812 48.234375 -59.65625 48.203125 -57.5625 C 48.171875 -55.476562 48.128906 -52.285156 48.078125 -47.984375 C 48.078125 -45.765625 46.753906 -44.65625 44.109375 -44.65625 C 42.691406 -44.65625 41.101562 -44.703125 39.34375 -44.796875 C 37.59375 -44.890625 35.914062 -44.9375 34.3125 -44.9375 C 32.71875 -44.9375 31.488281 -44.71875 30.625 -44.28125 C 29.15625 -43.601562 28.3125 -42.601562 28.09375 -41.28125 C 27.875 -39.96875 28.71875 -38.816406 30.625 -37.828125 C 31.738281 -37.273438 33.109375 -36.691406 34.734375 -36.078125 C 36.367188 -35.460938 37.953125 -34.816406 39.484375 -34.140625 C 43.910156 -32.046875 46.953125 -29.179688 48.609375 -25.546875 C 50.273438 -21.921875 50.585938 -17.925781 49.546875 -13.5625 C 49.117188 -11.65625 48.410156 -9.804688 47.421875 -8.015625 C 46.441406 -6.234375 45.148438 -4.695312 43.546875 -3.40625 C 41.335938 -1.625 38.234375 -0.367188 34.234375 0.359375 C 30.234375 1.097656 25.601562 1.453125 20.34375 1.421875 C 15.082031 1.398438 9.378906 1.234375 3.234375 0.921875 Z M 3.234375 0.921875"></path></g></g></g></svg>